<?xml version="1.0" encoding="iso-8859-1"?>
<!-- Generator: Adobe Illustrator 19.0.0, SVG Export Plug-In . SVG Version: 6.00 Build 0)  -->
<svg version="1.1" id="Layer_1" xmlns="http://www.w3.org/2000/svg" xmlns:xlink="http://www.w3.org/1999/xlink" x="0px" y="0px"
	 viewBox="0 0 512 512" style="enable-background:new 0 0 512 512;" xml:space="preserve">
<polygon style="fill:#FEE187;" points="262.229,417.006 123.366,256 262.229,94.994 388.634,94.994 249.771,256 388.634,417.006 "/>
<g>
	<path style="fill:#FFC61B;" d="M388.666,433.107c-0.016,0-0.026,0-0.034,0H262.228c-4.682,0-9.134-2.038-12.191-5.585
		L111.173,266.515c-5.212-6.043-5.212-14.99,0-21.032L250.036,84.477c3.058-3.547,7.509-5.585,12.191-5.585h126.404
		c6.297,0,12.016,3.671,14.639,9.395c2.623,5.724,1.666,12.452-2.447,17.221L271.032,256l129.23,149.836
		c2.789,2.895,4.507,6.833,4.507,11.171C404.767,425.899,397.558,433.107,388.666,433.107z M269.605,400.906h83.881l-115.907-134.39
		c-5.212-6.043-5.212-14.99,0-21.032l115.907-134.389h-83.881L144.627,256L269.605,400.906z"/>
	<path style="fill:#FFC61B;" d="M495.899,512H16.101C7.21,512,0,504.792,0,495.899V16.101C0,7.208,7.21,0,16.101,0h479.799
		C504.79,0,512,7.208,512,16.101v78.355c0,8.892-7.21,16.101-16.101,16.101s-16.101-7.208-16.101-16.101V32.201H32.201v447.597
		h447.597v-203.94c0-8.892,7.21-16.101,16.101-16.101S512,266.966,512,275.859v220.041C512,504.792,504.79,512,495.899,512z"/>
</g>
<g>
</g>
<g>
</g>
<g>
</g>
<g>
</g>
<g>
</g>
<g>
</g>
<g>
</g>
<g>
</g>
<g>
</g>
<g>
</g>
<g>
</g>
<g>
</g>
<g>
</g>
<g>
</g>
<g>
</g>
</svg>
