<?xml version="1.0" encoding="iso-8859-1"?>
<!-- Generator: Adobe Illustrator 19.0.0, SVG Export Plug-In . SVG Version: 6.00 Build 0)  -->
<svg version="1.1" id="Layer_1" xmlns="http://www.w3.org/2000/svg" xmlns:xlink="http://www.w3.org/1999/xlink" x="0px" y="0px"
	 viewBox="0 0 512.001 512.001" style="enable-background:new 0 0 512.001 512.001;" xml:space="preserve">
<circle style="fill:#F2F2F2;" cx="256.001" cy="256.001" r="256.001"/>
<circle style="fill:#E6E6E6;" cx="256.001" cy="256.001" r="165.322"/>
<path style="fill:#F97E62;" d="M256.001,224.572c0-34.782,23.949-62.979,53.49-62.979c36.927,0,66.863,35.246,66.863,78.724
	c0,53.78-63.065,106.37-118.597,135.178c-1.101,0.571-2.412,0.571-3.513,0c-55.532-28.81-118.597-81.4-118.597-135.178
	c0-43.478,29.936-78.724,66.863-78.724C232.052,161.593,256.001,189.79,256.001,224.572z"/>
<path style="fill:#E86B56;" d="M254.837,375.493c0.356,0.282,0.761,0.43,1.166,0.43c-0.614,0-1.203-0.147-1.756-0.43
	c-55.537-28.806-118.601-81.396-118.601-135.177c0-43.479,29.936-78.732,66.858-78.732c3.536,0,6.987,0.405,10.326,1.179
	c-20.825,6.459-36.664,38.727-36.664,77.553C176.166,294.097,218,346.687,254.837,375.493z"/>
<g>
</g>
<g>
</g>
<g>
</g>
<g>
</g>
<g>
</g>
<g>
</g>
<g>
</g>
<g>
</g>
<g>
</g>
<g>
</g>
<g>
</g>
<g>
</g>
<g>
</g>
<g>
</g>
<g>
</g>
</svg>
